HIERARCHY
ROOT Spine
{
    OFFSET 0.0 0.0 -0.0
    CHANNELS 6 Xposition Yposition Zposition Zrotation Xrotation Yrotation
    JOINT ShoulderCenter
    {
        OFFSET 0.0 33.28940963745117 0.0
        CHANNELS 3 Zrotation Xrotation Yrotation
        JOINT LeftShoulder
        {
            OFFSET 17.853328704833984 0.0 0.0
            CHANNELS 3 Zrotation Xrotation Yrotation
            JOINT LeftElbow
            {
                OFFSET 30.745092391967773 0.0 0.0
                CHANNELS 3 Zrotation Xrotation Yrotation
                JOINT LeftHand
                {
                    OFFSET 32.48783874511719 0.0 0.0
                    CHANNELS 3 Zrotation Xrotation Yrotation
                    End Site
                    {
                        OFFSET 12.995136260986328 0.0 0.0
                    }
                }
            }
        }
        JOINT RightShoulder
        {
            OFFSET -17.853328704833984 0.0 0.0
            CHANNELS 3 Zrotation Xrotation Yrotation
            JOINT RightElbow
            {
                OFFSET -30.745092391967773 0.0 0.0
                CHANNELS 3 Zrotation Xrotation Yrotation
                JOINT RightHand
                {
                    OFFSET -32.48783874511719 0.0 0.0
                    CHANNELS 3 Zrotation Xrotation Yrotation
                    End Site
                    {
                        OFFSET -12.995136260986328 0.0 0.0
                    }
                }
            }
        }
        End Site
        {
            OFFSET 0.0 13.315763473510742 0.0
        }
    }
    JOINT LeftHip
    {
        OFFSET 16.149140227137522 -16.149140227137522 0.0
        CHANNELS 3 Zrotation Xrotation Yrotation
        JOINT LeftKnee
        {
            OFFSET 0.0 -42.909881591796875 0.0
            CHANNELS 3 Zrotation Xrotation Yrotation
            JOINT LeftFoot
            {
                OFFSET 0.0 -45.58283996582031 0.0
                CHANNELS 3 Zrotation Xrotation Yrotation
                End Site
                {
                    OFFSET 0.0 0.0 18.233135223388672
                }
            }
        }
    }
    JOINT RightHip
    {
        OFFSET -16.149140227137522 -16.149140227137522 0.0
        CHANNELS 3 Zrotation Xrotation Yrotation
        JOINT RightKnee
        {
            OFFSET 0.0 -42.909881591796875 0.0
            CHANNELS 3 Zrotation Xrotation Yrotation
            JOINT RightFoot
            {
                OFFSET 0.0 -45.58283996582031 0.0
                CHANNELS 3 Zrotation Xrotation Yrotation
                End Site
                {
                    OFFSET 0.0 0.0 18.233135223388672
                }
            }
        }
    }
}
MOTION
Frames: 5
Frame Time: 0.03333333333333333
42.39999771118164 -30.000001907348633 64.70000457763672 5.643317826017101 -40.08900642528513 -170.93934529129456 2.9419438620975e-07 8.412482939889554e-07 6.605635102164465 123.51673443917606 -16.788611543399508 -117.27875598953332 3.105340800788846e-07 9.5713870885576e-08 57.05891418869897 1.7655625192200634e-31 3.1805546814635168e-15 -6.3611093629270335e-15 -131.07305080464477 -7.687465454924822 121.5673989406251 4.236536138966966e-06 -3.3167702072188384e-06 -64.29831534554276 6.3611093629270335e-15 0.0 0.0 140.25575187806626 -41.89592200107368 -133.78607201015393 91.03328941674694 8.808387522891188 -157.42262671325227 -5.963540027744096e-16 1.4224502718325707e-33 -2.73328917938271e-16 -143.35413742801714 -39.38434446246536 129.01789517978952 -95.0236190353482 8.807576125755297 155.8486118826557 -1.9878466759146977e-16 -3.975693351829396e-16 4.578259375466039e-15
42.5 -30.000001907348633 64.9000015258789 5.665566749730592 -40.331490476717526 -171.2079133336648 -1.7781670583727134e-07 1.4749909311169821e-06 6.4244503033118905 123.64236925091048 -16.38862100436773 -117.41790020850253 -7.13758962427333e-07 -5.005436916764212e-07 57.1084320767904 -1.2722218725854067e-14 3.1805546814635176e-15 -6.3611093629270335e-15 -131.01722995632628 -7.781932370762221 121.35536392321403 4.124891452225373e-06 3.3127294119536296e-06 -64.69679540146538 -6.361109362927035e-15 7.95138670365879e-16 6.361109362927035e-15 140.0534691653972 -41.476827002030845 -133.6074730565365 91.02053701846788 8.460968572113881 -158.68050195622405 -3.975693351829396e-16 -1.715561236937464e-32 4.9447686063378114e-15 -143.87807968593805 -39.44021989319384 128.3580818943803 -94.9800425601627 8.664814844814122 156.3913391005897 -4.267350815497712e-33 3.975693351829396e-16 1.2299801307222194e-15
42.5 -30.100000381469727 64.80000305175781 5.64331860197919 -40.08901224395195 -170.6914637898463 5.848584547693394e-07 1.2926415729516336e-06 5.909603963856354 123.84059215736579 -16.198230799777612 -117.14324182345278 7.925883034887206e-07 2.8436984401288183e-06 56.7770743808134 6.361109362927033e-15 -1.5902773407317578e-15 6.361109362927033e-15 -131.00377963915102 -7.887377937130222 121.50910821946515 -1.8973189837732654e-06 -9.073143659417912e-07 -64.66652694481844 6.3611093629270335e-15 7.156248033292914e-15 -3.972515668245143e-31 140.4320097780374 -42.20674735760855 -133.69857263464752 90.80901337477684 9.02816123222244 -157.25639653775167 -1.9878466759146977e-16 7.951386703658791e-16 -1.1927080055488186e-15 -143.20593126092055 -38.941110001111504 128.87862548600035 -95.27795625436869 8.41237101616746 157.02041645416463 1.987846675914698e-16 3.975693351829396e-16 1.5964893615939918e-15
42.5 -30.100000381469727 64.80000305175781 5.643318498303244 -39.95684940530655 -170.20055825931735 1.2624204543070998e-07 -4.843554998210862e-07 5.427146824618975 123.84582038319375 -16.276271937222592 -117.24866457311798 7.925883034887206e-07 2.8436984401288183e-06 56.7770743808134 6.361109362927033e-15 -1.5902773407317578e-15 6.361109362927033e-15 -130.5012435281657 -8.04993090848518 121.9419316278773 1.5356765077618746e-06 5.604983255937136e-07 -65.07795168341886 3.1805546814635168e-15 0.0 0.0 140.9899039360851 -42.873004446191935 -133.52237856624618 90.73853503048576 9.264546571670973 -156.93415886277404 3.975693351829396e-16 -1.4138293610941915e-32 -4.075085685625131e-15 -142.6606914114661 -38.692907817497534 129.24444094399254 -95.3119344409447 8.178267100760346 157.48489489710448 1.987846675914698e-16 3.394483603236816e-33 1.9567865716035308e-15
42.5 -30.19999885559082 64.80000305175781 5.621244753365994 -39.84670000160505 -170.25953444445975 4.117425777286949e-07 -5.118387196062948e-06 5.511924215481291 123.49672438110257 -16.366776065113026 -117.75043102893295 -7.720599768011894e-06 2.3104787227429725e-07 56.93579060171611 6.3611093629270335e-15 6.3611093629270335e-15 -3.531125038440127e-31 -130.36546959949956 -7.955624141278093 121.97955603088916 2.9692098070831198e-06 1.8230543009954092e-08 -65.07304678745385 0.0 0.0 0.0 141.10963523341928 -42.86595050609446 -133.76315246171038 90.88395610005922 9.509483915900795 -156.51657511822853 1.9878466759146977e-16 3.836305278578751e-33 2.2114794269551013e-15 -142.94044985338985 -38.62803138023082 129.1103442037319 -95.54556540758365 8.097695091386491 157.61703349840096 3.9756933518293955e-16 3.9756933518293955e-16 -1.9661046028968808e-15
